<svg width="1600" height="1600" viewBox="0 0 1600 1600" xmlns="http://www.w3.org/2000/svg">
  <!-- 4x4 Mathematically Pleasing Logo Grid -->
  <!-- Golden ratio, Fibonacci, simple fractions, square roots, special angles -->
  <!-- W = 100 (constant) -->

  <rect width="1600" height="1600" fill="#f5f5f5"/>

  <text x="800.0" y="30" text-anchor="middle" font-family="serif" font-size="20" font-weight="bold">Mathematically Pleasing Parameter Combinations</text>

  <g transform="translate(200.0,230.0) scale(0.49808429118773945)">
    <path d="M 0,-261 L 0,-161 A 161,161 0 0 0 -151.80339887498948,53.63513857538583 L -151.80339887498948,212.31280717375682 A 261,261 0 0 1 0,-261 Z" fill="#E4572E"/>
    <path d="M 0,261 L 0,161 A 161,161 0 0 0 151.80339887498948,-53.63513857538583 L 151.80339887498948,-212.31280717375682 A 261,261 0 0 1 0,261 Z" fill="#A1C181"/>
    <path d="M 25.901699437494745,-259.71157457119557 A 261,261 0 0 1 125.90169943749474,-228.62581236323848 L 125.90169943749474,-63.03294593813854 A 100,100 0 0 1 60.86225259737712,30.656753190180993 L -25.901699437494745,63.03294593813854 L -25.901699437494745,259.71157457119557 A 261,261 0 0 1 -125.90169943749474,228.62581236323848 L -125.90169943749474,63.03294593813854 A 100,100 0 0 1 -60.86225259737712,-30.656753190180993 L 25.901699437494745,-63.03294593813854 Z" fill="#4F6D7A"/>
  </g>
  <text x="10" y="50" font-family="monospace" font-size="11" font-weight="bold" fill="#c00">φ ratio</text>
  <text x="10" y="64" font-family="monospace" font-size="9" fill="#333">Ri/W=φ, G≈φ-1</text>
  <text x="10" y="76" font-family="monospace" font-size="9" fill="#666">W=100</text>
  <text x="10" y="88" font-family="monospace" font-size="9" fill="#666">Ri=161</text>
  <text x="10" y="100" font-family="monospace" font-size="9" fill="#666">G=0.259</text>
  <text x="10" y="112" font-family="monospace" font-size="8" fill="#999">ratio=1.610</text>
  <text x="10" y="122" font-family="monospace" font-size="8" fill="#999">∠20.5°</text>
  <g transform="translate(600.0,230.0) scale(0.49808429118773945)">
    <path d="M 0,-261 L 0,-161 A 161,161 0 0 0 -140.0,79.50471684120383 L -140.0,220.27482833950864 A 261,261 0 0 1 0,-261 Z" fill="#E4572E"/>
    <path d="M 0,261 L 0,161 A 161,161 0 0 0 140.0,-79.50471684120383 L 140.0,-220.27482833950864 A 261,261 0 0 1 0,261 Z" fill="#A1C181"/>
    <path d="M 20.0,-260.2325882744127 A 261,261 0 0 1 120.0,-231.77791094062437 L 120.0,-63.400206821834495 A 100,100 0 0 1 60.224546392781285,28.152979182230844 L -20.0,63.400206821834495 L -20.0,260.2325882744127 A 261,261 0 0 1 -120.0,231.77791094062437 L -120.0,63.400206821834495 A 100,100 0 0 1 -60.224546392781285,-28.152979182230844 L 20.0,-63.400206821834495 Z" fill="#4F6D7A"/>
  </g>
  <text x="410" y="50" font-family="monospace" font-size="11" font-weight="bold" fill="#c00">φ ratio</text>
  <text x="410" y="64" font-family="monospace" font-size="9" fill="#333">Ri/W=φ, G=1/5</text>
  <text x="410" y="76" font-family="monospace" font-size="9" fill="#666">W=100</text>
  <text x="410" y="88" font-family="monospace" font-size="9" fill="#666">Ri=161</text>
  <text x="410" y="100" font-family="monospace" font-size="9" fill="#666">G=0.200</text>
  <text x="410" y="112" font-family="monospace" font-size="8" fill="#999">ratio=1.610</text>
  <text x="410" y="122" font-family="monospace" font-size="8" fill="#999">∠23.7°</text>
  <g transform="translate(1000.0,230.0) scale(0.45454545454545453)">
    <path d="M 0,-286 L 0,-186 A 186,186 0 0 0 -176.39320225002103,59.003713442317974 L -176.39320225002103,225.1253832866991 A 286,286 0 0 1 0,-286 Z" fill="#E4572E"/>
    <path d="M 0,286 L 0,186 A 186,186 0 0 0 176.39320225002103,-59.003713442317974 L 176.39320225002103,-225.1253832866991 A 286,286 0 0 1 0,286 Z" fill="#A1C181"/>
    <path d="M 38.19660112501052,-283.4378585554457 A 286,286 0 0 1 138.19660112501052,-250.3950866880074 L 138.19660112501052,-74.80766449598352 A 100,100 0 0 1 82.6900502295251,14.748647323921006 L -38.19660112501052,74.80766449598352 L -38.19660112501052,283.4378585554457 A 286,286 0 0 1 -138.19660112501052,250.3950866880074 L -138.19660112501052,74.80766449598352 A 100,100 0 0 1 -82.6900502295251,-14.748647323921006 L 38.19660112501052,-74.80766449598352 Z" fill="#4F6D7A"/>
  </g>
  <text x="810" y="50" font-family="monospace" font-size="11" font-weight="bold" fill="#c00">φ inv</text>
  <text x="810" y="64" font-family="monospace" font-size="9" fill="#333">G=(φ-1)/φ</text>
  <text x="810" y="76" font-family="monospace" font-size="9" fill="#666">W=100</text>
  <text x="810" y="88" font-family="monospace" font-size="9" fill="#666">Ri=186</text>
  <text x="810" y="100" font-family="monospace" font-size="9" fill="#666">G=0.382</text>
  <text x="810" y="112" font-family="monospace" font-size="8" fill="#999">ratio=1.860</text>
  <text x="810" y="122" font-family="monospace" font-size="8" fill="#999">∠26.4°</text>
  <g transform="translate(1400.0,230.0) scale(0.52)">
    <path d="M 0,-250 L 0,-150 A 150,150 0 0 0 -143.60679774997897,43.32536947328477 L -143.60679774997897,204.63892014960555 A 250,250 0 0 1 0,-250 Z" fill="#E4572E"/>
    <path d="M 0,250 L 0,150 A 150,150 0 0 0 143.60679774997897,-43.32536947328477 L 143.60679774997897,-204.63892014960555 A 250,250 0 0 1 0,250 Z" fill="#A1C181"/>
    <path d="M 21.803398874989476,-249.047408734759 A 250,250 0 0 1 121.80339887498948,-218.32070910131318 L 121.80339887498948,-58.425409514647484 A 100,100 0 0 1 49.76075524045301,37.587017936461564 L -21.803398874989476,58.425409514647484 L -21.803398874989476,249.047408734759 A 250,250 0 0 1 -121.80339887498948,218.32070910131318 L -121.80339887498948,58.425409514647484 A 100,100 0 0 1 -49.76075524045301,-37.587017936461564 L 21.803398874989476,-58.425409514647484 Z" fill="#4F6D7A"/>
  </g>
  <text x="1210" y="50" font-family="monospace" font-size="11" font-weight="bold" fill="#c00">φ inv</text>
  <text x="1210" y="64" font-family="monospace" font-size="9" fill="#333">Ri/W=3/2, G≈1/φ-0.4</text>
  <text x="1210" y="76" font-family="monospace" font-size="9" fill="#666">W=100</text>
  <text x="1210" y="88" font-family="monospace" font-size="9" fill="#666">Ri=150</text>
  <text x="1210" y="100" font-family="monospace" font-size="9" fill="#666">G=0.218</text>
  <text x="1210" y="112" font-family="monospace" font-size="8" fill="#999">ratio=1.500</text>
  <text x="1210" y="122" font-family="monospace" font-size="8" fill="#999">∠16.2°</text>
  <g transform="translate(200.0,630.0) scale(0.52)">
    <path d="M 0,-250 L 0,-150 A 150,150 0 0 0 -133.33333333333331,68.71842709362771 L -133.33333333333331,211.47629234082535 A 250,250 0 0 1 0,-250 Z" fill="#E4572E"/>
    <path d="M 0,250 L 0,150 A 150,150 0 0 0 133.33333333333331,-68.71842709362771 L 133.33333333333331,-211.47629234082535 A 250,250 0 0 1 0,250 Z" fill="#A1C181"/>
    <path d="M 16.666666666666664,-249.44382578492943 A 250,250 0 0 1 116.66666666666667,-221.10831935702666 L 116.66666666666667,-58.925565098878955 A 100,100 0 0 1 49.99999999999999,35.355339059327385 L -16.666666666666664,58.925565098878955 L -16.666666666666664,249.44382578492943 A 250,250 0 0 1 -116.66666666666667,221.10831935702666 L -116.66666666666667,58.925565098878955 A 100,100 0 0 1 -49.99999999999999,-35.355339059327385 L 16.666666666666664,-58.925565098878955 Z" fill="#4F6D7A"/>
  </g>
  <text x="10" y="450" font-family="monospace" font-size="11" font-weight="bold" fill="#c00">3/2</text>
  <text x="10" y="464" font-family="monospace" font-size="9" fill="#333">Ri/W=3/2, G=1/6</text>
  <text x="10" y="476" font-family="monospace" font-size="9" fill="#666">W=100</text>
  <text x="10" y="488" font-family="monospace" font-size="9" fill="#666">Ri=150</text>
  <text x="10" y="500" font-family="monospace" font-size="9" fill="#666">G=0.167</text>
  <text x="10" y="512" font-family="monospace" font-size="8" fill="#999">ratio=1.500</text>
  <text x="10" y="522" font-family="monospace" font-size="8" fill="#999">∠19.5°</text>
  <g transform="translate(600.0,630.0) scale(0.48872180451127817)">
    <path d="M 0,-266 L 0,-166 A 166,166 0 0 0 -133.33333333333331,98.88489380194645 L -133.33333333333331,230.1699854938133 A 266,266 0 0 1 0,-266 Z" fill="#E4572E"/>
    <path d="M 0,266 L 0,166 A 166,166 0 0 0 133.33333333333331,-98.88489380194645 L 133.33333333333331,-230.1699854938133 A 266,266 0 0 1 0,266 Z" fill="#A1C181"/>
    <path d="M 16.666666666666664,-265.47734785141694 A 266,266 0 0 1 116.66666666666667,-239.04997153082635 L 116.66666666666667,-65.32646822121121 A 100,100 0 0 1 63.331621422662735,23.117762781273285 L -16.666666666666664,65.32646822121121 L -16.666666666666664,265.47734785141694 A 266,266 0 0 1 -116.66666666666667,239.04997153082635 L -116.66666666666667,65.32646822121121 A 100,100 0 0 1 -63.331621422662735,-23.117762781273285 L 16.666666666666664,-65.32646822121121 Z" fill="#4F6D7A"/>
  </g>
  <text x="410" y="450" font-family="monospace" font-size="11" font-weight="bold" fill="#c00">5/3</text>
  <text x="410" y="464" font-family="monospace" font-size="9" fill="#333">Ri/W=5/3, G=1/6</text>
  <text x="410" y="476" font-family="monospace" font-size="9" fill="#666">W=100</text>
  <text x="410" y="488" font-family="monospace" font-size="9" fill="#666">Ri=166</text>
  <text x="410" y="500" font-family="monospace" font-size="9" fill="#666">G=0.167</text>
  <text x="410" y="512" font-family="monospace" font-size="8" fill="#999">ratio=1.660</text>
  <text x="410" y="522" font-family="monospace" font-size="8" fill="#999">∠27.8°</text>
  <g transform="translate(1000.0,630.0) scale(0.5)">
    <path d="M 0,-260 L 0,-160 A 160,160 0 0 0 -140.0,77.45966692414834 L -140.0,219.08902300206645 A 260,260 0 0 1 0,-260 Z" fill="#E4572E"/>
    <path d="M 0,260 L 0,160 A 160,160 0 0 0 140.0,-77.45966692414834 L 140.0,-219.08902300206645 A 260,260 0 0 1 0,260 Z" fill="#A1C181"/>
    <path d="M 20.0,-259.2296279363144 A 260,260 0 0 1 120.0,-230.65125189341592 L 120.0,-62.97068928019115 A 100,100 0 0 1 59.39365394650969,28.943074807363445 L -20.0,62.97068928019115 L -20.0,259.2296279363144 A 260,260 0 0 1 -120.0,230.65125189341592 L -120.0,62.97068928019115 A 100,100 0 0 1 -59.39365394650969,-28.943074807363445 L 20.0,-62.97068928019115 Z" fill="#4F6D7A"/>
  </g>
  <text x="810" y="450" font-family="monospace" font-size="11" font-weight="bold" fill="#c00">8/5 Fib</text>
  <text x="810" y="464" font-family="monospace" font-size="9" fill="#333">Ri/W=8/5, G=1/5</text>
  <text x="810" y="476" font-family="monospace" font-size="9" fill="#666">W=100</text>
  <text x="810" y="488" font-family="monospace" font-size="9" fill="#666">Ri=160</text>
  <text x="810" y="500" font-family="monospace" font-size="9" fill="#666">G=0.200</text>
  <text x="810" y="512" font-family="monospace" font-size="8" fill="#999">ratio=1.600</text>
  <text x="810" y="522" font-family="monospace" font-size="8" fill="#999">∠23.2°</text>
  <g transform="translate(1400.0,630.0) scale(0.43333333333333335)">
    <path d="M 0,-300 L 0,-200 A 200,200 0 0 0 -133.33333333333331,149.071198499986 L -133.33333333333331,268.74192494328497 A 300,300 0 0 1 0,-300 Z" fill="#E4572E"/>
    <path d="M 0,300 L 0,200 A 200,200 0 0 0 133.33333333333331,-149.071198499986 L 133.33333333333331,-268.74192494328497 A 300,300 0 0 1 0,300 Z" fill="#A1C181"/>
    <path d="M 16.666666666666664,-299.53667926019045 A 300,300 0 0 1 116.66666666666667,-276.38539919628334 L 116.66666666666667,-79.01979666899274 A 100,100 0 0 1 80.7274420340703,-2.2329679851159057 L -16.666666666666664,79.01979666899274 L -16.666666666666664,299.53667926019045 A 300,300 0 0 1 -116.66666666666667,276.38539919628334 L -116.66666666666667,79.01979666899274 A 100,100 0 0 1 -80.7274420340703,2.2329679851159057 L 16.666666666666664,-79.01979666899274 Z" fill="#4F6D7A"/>
  </g>
  <text x="1210" y="450" font-family="monospace" font-size="11" font-weight="bold" fill="#c00">2/1</text>
  <text x="1210" y="464" font-family="monospace" font-size="9" fill="#333">Ri/W=2/1, G=1/6</text>
  <text x="1210" y="476" font-family="monospace" font-size="9" fill="#666">W=100</text>
  <text x="1210" y="488" font-family="monospace" font-size="9" fill="#666">Ri=200</text>
  <text x="1210" y="500" font-family="monospace" font-size="9" fill="#666">G=0.167</text>
  <text x="1210" y="512" font-family="monospace" font-size="8" fill="#999">ratio=2.000</text>
  <text x="1210" y="522" font-family="monospace" font-size="8" fill="#999">∠39.8°</text>
  <g transform="translate(200.0,1030.0) scale(0.5394190871369294)">
    <path d="M 0,-241 L 0,-141 A 141,141 0 0 0 -130.0,54.59853477887479 L -130.0,202.93102276389385 A 241,241 0 0 1 0,-241 Z" fill="#E4572E"/>
    <path d="M 0,241 L 0,141 A 141,141 0 0 0 130.0,-54.59853477887479 L 130.0,-202.93102276389385 A 241,241 0 0 1 0,241 Z" fill="#A1C181"/>
    <path d="M 15.0,-240.53274205396653 A 241,241 0 0 1 114.99999999999999,-211.7923511366735 L 114.99999999999999,-55.567110584472104 A 100,100 0 0 1 40.17897817132666,41.21108457460211 L -15.0,55.567110584472104 L -15.0,240.53274205396653 A 241,241 0 0 1 -114.99999999999999,211.7923511366735 L -114.99999999999999,55.567110584472104 A 100,100 0 0 1 -40.17897817132666,-41.21108457460211 L 15.0,-55.567110584472104 Z" fill="#4F6D7A"/>
  </g>
  <text x="10" y="850" font-family="monospace" font-size="11" font-weight="bold" fill="#c00">√2</text>
  <text x="10" y="864" font-family="monospace" font-size="9" fill="#333">Ri/W=√2, G=0.15</text>
  <text x="10" y="876" font-family="monospace" font-size="9" fill="#666">W=100</text>
  <text x="10" y="888" font-family="monospace" font-size="9" fill="#666">Ri=141</text>
  <text x="10" y="900" font-family="monospace" font-size="9" fill="#666">G=0.150</text>
  <text x="10" y="912" font-family="monospace" font-size="8" fill="#999">ratio=1.410</text>
  <text x="10" y="922" font-family="monospace" font-size="8" fill="#999">∠14.6°</text>
  <g transform="translate(600.0,1030.0) scale(0.5394190871369294)">
    <path d="M 0,-241 L 0,-141 A 141,141 0 0 0 -140.0,16.76305461424021 L -140.0,196.1657462453626 A 241,241 0 0 1 0,-241 Z" fill="#E4572E"/>
    <path d="M 0,241 L 0,141 A 141,141 0 0 0 140.0,-16.76305461424021 L 140.0,-196.1657462453626 A 241,241 0 0 1 0,241 Z" fill="#A1C181"/>
    <path d="M 20.0,-240.16869071550522 A 241,241 0 0 1 120.0,-209.0 L 120.0,-54.77157356129933 A 100,100 0 0 1 38.91450360329773,43.42334256698522 L -20.0,54.77157356129933 L -20.0,240.16869071550522 A 241,241 0 0 1 -120.0,209.0 L -120.0,54.77157356129933 A 100,100 0 0 1 -38.91450360329773,-43.42334256698522 L 20.0,-54.77157356129933 Z" fill="#4F6D7A"/>
  </g>
  <text x="410" y="850" font-family="monospace" font-size="11" font-weight="bold" fill="#c00">√2</text>
  <text x="410" y="864" font-family="monospace" font-size="9" fill="#333">Ri/W=√2, G=1/5</text>
  <text x="410" y="876" font-family="monospace" font-size="9" fill="#666">W=100</text>
  <text x="410" y="888" font-family="monospace" font-size="9" fill="#666">Ri=141</text>
  <text x="410" y="900" font-family="monospace" font-size="9" fill="#666">G=0.200</text>
  <text x="410" y="912" font-family="monospace" font-size="8" fill="#999">ratio=1.410</text>
  <text x="410" y="922" font-family="monospace" font-size="8" fill="#999">∠10.9°</text>
  <g transform="translate(1000.0,1030.0) scale(0.47619047619047616)">
    <path d="M 0,-273 L 0,-173 A 173,173 0 0 0 -130.0,114.14464507807627 L -130.0,240.06040906405204 A 273,273 0 0 1 0,-273 Z" fill="#E4572E"/>
    <path d="M 0,273 L 0,173 A 173,173 0 0 0 130.0,-114.14464507807627 L 130.0,-240.06040906405204 A 273,273 0 0 1 0,273 Z" fill="#A1C181"/>
    <path d="M 15.0,-272.58760059841313 A 273,273 0 0 1 114.99999999999999,-247.59644585494357 L 114.99999999999999,-67.87142891724675 A 100,100 0 0 1 67.30712616448508,17.357466138436337 L -15.0,67.87142891724675 L -15.0,272.58760059841313 A 273,273 0 0 1 -114.99999999999999,247.59644585494357 L -114.99999999999999,67.87142891724675 A 100,100 0 0 1 -67.30712616448508,-17.357466138436337 L 15.0,-67.87142891724675 Z" fill="#4F6D7A"/>
  </g>
  <text x="810" y="850" font-family="monospace" font-size="11" font-weight="bold" fill="#c00">√3</text>
  <text x="810" y="864" font-family="monospace" font-size="9" fill="#333">Ri/W=√3, G=0.15</text>
  <text x="810" y="876" font-family="monospace" font-size="9" fill="#666">W=100</text>
  <text x="810" y="888" font-family="monospace" font-size="9" fill="#666">Ri=173</text>
  <text x="810" y="900" font-family="monospace" font-size="9" fill="#666">G=0.150</text>
  <text x="810" y="912" font-family="monospace" font-size="8" fill="#999">ratio=1.730</text>
  <text x="810" y="922" font-family="monospace" font-size="8" fill="#999">∠31.5°</text>
  <g transform="translate(1400.0,1030.0) scale(0.47619047619047616)">
    <path d="M 0,-273 L 0,-173 A 173,173 0 0 0 -140.0,101.63168797181321 L -140.0,234.3693665989649 A 273,273 0 0 1 0,-273 Z" fill="#E4572E"/>
    <path d="M 0,273 L 0,173 A 173,173 0 0 0 140.0,-101.63168797181321 L 140.0,-234.3693665989649 A 273,273 0 0 1 0,273 Z" fill="#A1C181"/>
    <path d="M 20.0,-272.26641364663396 A 273,273 0 0 1 120.0,-245.21215304303334 L 120.0,-68.53979829533327 A 100,100 0 0 1 68.91053355881175,18.682674193081965 L -20.0,68.53979829533327 L -20.0,272.26641364663396 A 273,273 0 0 1 -120.0,245.21215304303334 L -120.0,68.53979829533327 A 100,100 0 0 1 -68.91053355881175,-18.682674193081965 L 20.0,-68.53979829533327 Z" fill="#4F6D7A"/>
  </g>
  <text x="1210" y="850" font-family="monospace" font-size="11" font-weight="bold" fill="#c00">√3</text>
  <text x="1210" y="864" font-family="monospace" font-size="9" fill="#333">Ri/W=√3, G=1/5</text>
  <text x="1210" y="876" font-family="monospace" font-size="9" fill="#666">W=100</text>
  <text x="1210" y="888" font-family="monospace" font-size="9" fill="#666">Ri=173</text>
  <text x="1210" y="900" font-family="monospace" font-size="9" fill="#666">G=0.200</text>
  <text x="1210" y="912" font-family="monospace" font-size="8" fill="#999">ratio=1.730</text>
  <text x="1210" y="922" font-family="monospace" font-size="8" fill="#999">∠29.3°</text>
  <g transform="translate(200.0,1430.0) scale(0.48148148148148145)">
    <path d="M 0,-270 L 0,-170 A 170,170 0 0 0 -130.0,109.54451150103323 L -130.0,236.64319132398464 A 270,270 0 0 1 0,-270 Z" fill="#E4572E"/>
    <path d="M 0,270 L 0,170 A 170,170 0 0 0 130.0,-109.54451150103323 L 130.0,-236.64319132398464 A 270,270 0 0 1 0,270 Z" fill="#A1C181"/>
    <path d="M 15.0,-269.58301133417143 A 270,270 0 0 1 114.99999999999999,-244.28467000612216 L 114.99999999999999,-66.70153512965892 A 100,100 0 0 1 65.49330868442085,19.61431380957002 L -15.0,66.70153512965892 L -15.0,269.58301133417143 A 270,270 0 0 1 -114.99999999999999,244.28467000612216 L -114.99999999999999,66.70153512965892 A 100,100 0 0 1 -65.49330868442085,-19.61431380957002 L 15.0,-66.70153512965892 Z" fill="#4F6D7A"/>
  </g>
  <text x="10" y="1250" font-family="monospace" font-size="11" font-weight="bold" fill="#c00">30°</text>
  <text x="10" y="1264" font-family="monospace" font-size="9" fill="#333">Diagonal ≈30°</text>
  <text x="10" y="1276" font-family="monospace" font-size="9" fill="#666">W=100</text>
  <text x="10" y="1288" font-family="monospace" font-size="9" fill="#666">Ri=170</text>
  <text x="10" y="1300" font-family="monospace" font-size="9" fill="#666">G=0.150</text>
  <text x="10" y="1312" font-family="monospace" font-size="8" fill="#999">ratio=1.700</text>
  <text x="10" y="1322" font-family="monospace" font-size="8" fill="#999">∠30.3°</text>
  <g transform="translate(600.0,1430.0) scale(0.41935483870967744)">
    <path d="M 0,-310 L 0,-210 A 210,210 0 0 0 -120.0,172.33687939614086 L -120.0,285.832118559129 A 310,310 0 0 1 0,-310 Z" fill="#E4572E"/>
    <path d="M 0,310 L 0,210 A 210,210 0 0 0 120.0,-172.33687939614086 L 120.0,-285.832118559129 A 310,310 0 0 1 0,310 Z" fill="#A1C181"/>
    <path d="M 10.0,-309.83866769659335 A 310,310 0 0 1 110.00000000000001,-289.8275349237888 L 110.00000000000001,-80.14211346235213 A 100,100 0 0 1 80.26216236547033,-8.985746637391998 L -10.0,80.14211346235213 L -10.0,309.83866769659335 A 310,310 0 0 1 -110.00000000000001,289.8275349237888 L -110.00000000000001,80.14211346235213 A 100,100 0 0 1 -80.26216236547033,8.985746637391998 L 10.0,-80.14211346235213 Z" fill="#4F6D7A"/>
  </g>
  <text x="410" y="1250" font-family="monospace" font-size="11" font-weight="bold" fill="#c00">45°</text>
  <text x="410" y="1264" font-family="monospace" font-size="9" fill="#333">Diagonal ≈45°</text>
  <text x="410" y="1276" font-family="monospace" font-size="9" fill="#666">W=100</text>
  <text x="410" y="1288" font-family="monospace" font-size="9" fill="#666">Ri=210</text>
  <text x="410" y="1300" font-family="monospace" font-size="9" fill="#666">G=0.100</text>
  <text x="410" y="1312" font-family="monospace" font-size="8" fill="#999">ratio=2.100</text>
  <text x="410" y="1322" font-family="monospace" font-size="8" fill="#999">∠44.6°</text>
  <g transform="translate(1000.0,1430.0) scale(0.4961832061068702)">
    <path d="M 0,-262 L 0,-162 A 162,162 0 0 0 -133.33333333333331,92.01207650206698 L -133.33333333333331,225.53541234631476 A 262,262 0 0 1 0,-262 Z" fill="#E4572E"/>
    <path d="M 0,262 L 0,162 A 162,162 0 0 0 133.33333333333331,-92.01207650206698 L 133.33333333333331,-225.53541234631476 A 262,262 0 0 1 0,262 Z" fill="#A1C181"/>
    <path d="M 16.666666666666664,-261.4693523574459 A 262,262 0 0 1 116.66666666666667,-234.5908968585288 L 116.66666666666667,-63.721090779140894 A 100,100 0 0 1 60.432421559950676,26.19308329047388 L -16.666666666666664,63.721090779140894 L -16.666666666666664,261.4693523574459 A 262,262 0 0 1 -116.66666666666667,234.5908968585288 L -116.66666666666667,63.721090779140894 A 100,100 0 0 1 -60.432421559950676,-26.19308329047388 L 16.666666666666664,-63.721090779140894 Z" fill="#4F6D7A"/>
  </g>
  <text x="810" y="1250" font-family="monospace" font-size="11" font-weight="bold" fill="#c00">13/8 Fib</text>
  <text x="810" y="1264" font-family="monospace" font-size="9" fill="#333">Ri/W=13/8, G=1/6</text>
  <text x="810" y="1276" font-family="monospace" font-size="9" fill="#666">W=100</text>
  <text x="810" y="1288" font-family="monospace" font-size="9" fill="#666">Ri=162</text>
  <text x="810" y="1300" font-family="monospace" font-size="9" fill="#666">G=0.167</text>
  <text x="810" y="1312" font-family="monospace" font-size="8" fill="#999">ratio=1.620</text>
  <text x="810" y="1322" font-family="monospace" font-size="8" fill="#999">∠26.0°</text>
  <g transform="translate(1400.0,1430.0) scale(0.26)">
    <path d="M 0,-500 L 0,-400 A 400,400 0 0 0 -130.0,378.28560638755476 L -130.0,482.80430818293246 A 500,500 0 0 1 0,-500 Z" fill="#E4572E"/>
    <path d="M 0,500 L 0,400 A 400,400 0 0 0 130.0,-378.28560638755476 L 130.0,-482.80430818293246 A 500,500 0 0 1 0,500 Z" fill="#A1C181"/>
    <path d="M 15.0,-499.7749493522059 A 500,500 0 0 1 114.99999999999999,-486.5953144040744 L 114.99999999999999,-157.33347185117395 A 100,100 0 0 1 106.43310167394793,-116.83670755720229 L -15.0,157.33347185117395 L -15.0,499.7749493522059 A 500,500 0 0 1 -114.99999999999999,486.5953144040744 L -114.99999999999999,157.33347185117395 A 100,100 0 0 1 -106.43310167394793,116.83670755720229 L 15.0,-157.33347185117395 Z" fill="#4F6D7A"/>
  </g>
  <text x="1210" y="1250" font-family="monospace" font-size="11" font-weight="bold" fill="#c00">5:4</text>
  <text x="1210" y="1264" font-family="monospace" font-size="9" fill="#333">Ro/Ri=5/4</text>
  <text x="1210" y="1276" font-family="monospace" font-size="9" fill="#666">W=100</text>
  <text x="1210" y="1288" font-family="monospace" font-size="9" fill="#666">Ri=400</text>
  <text x="1210" y="1300" font-family="monospace" font-size="9" fill="#666">G=0.150</text>
  <text x="1210" y="1312" font-family="monospace" font-size="8" fill="#999">ratio=4.000</text>
  <text x="1210" y="1322" font-family="monospace" font-size="8" fill="#999">∠66.1°</text>

  <!-- Grid lines -->
  <line x1="400" y1="40" x2="400" y2="1600" stroke="#ccc" stroke-width="1"/>
  <line x1="800" y1="40" x2="800" y2="1600" stroke="#ccc" stroke-width="1"/>
  <line x1="1200" y1="40" x2="1200" y2="1600" stroke="#ccc" stroke-width="1"/>
  <line x1="0" y1="40" x2="1600" y2="40" stroke="#ccc" stroke-width="1"/>
  <line x1="0" y1="440" x2="1600" y2="440" stroke="#ccc" stroke-width="1"/>
  <line x1="0" y1="840" x2="1600" y2="840" stroke="#ccc" stroke-width="1"/>
  <line x1="0" y1="1240" x2="1600" y2="1240" stroke="#ccc" stroke-width="1"/>
</svg>