<svg width="1600" height="1600" viewBox="0 0 1600 1600" xmlns="http://www.w3.org/2000/svg">
  <!-- 4x4 Logo Parameter Exploration Grid -->
  <!-- Condensed logos with all three parameters varying systematically -->
  <!-- Rows: W = 80, 100, 120, 140 -->
  <!-- Columns: G = 0.10, 0.15, 0.20, 0.25 -->
  <!-- Ri/W ratio: 1.35, 1.50, 1.70, 1.90 (increases across columns) -->
  <!-- Slopes range from 13.7° to 33.6° (very gentle) -->

  <rect width="1600" height="1600" fill="#f5f5f5"/>

  <!-- Column headers (G values) -->
  <text x="200.0" y="30" text-anchor="middle" font-family="monospace" font-size="16" font-weight="bold">G = 0.10</text>
  <text x="600.0" y="30" text-anchor="middle" font-family="monospace" font-size="16" font-weight="bold">G = 0.15</text>
  <text x="1000.0" y="30" text-anchor="middle" font-family="monospace" font-size="16" font-weight="bold">G = 0.20</text>
  <text x="1400.0" y="30" text-anchor="middle" font-family="monospace" font-size="16" font-weight="bold">G = 0.25</text>

  <!-- Row 1: W = 80 -->
  <text x="15" y="200.0" text-anchor="start" font-family="monospace" font-size="16" font-weight="bold" transform="rotate(-90 15 200.0)">W = 80</text>
  <g transform="translate(200.0,200.0) scale(0.7446808510638298)">
    <path d="M 0,-188 L 0,-108 A 108,108 0 0 0 -96.0,49.47726750741192 L -96.0,161.641578809414 A 188,188 0 0 1 0,-188 Z" fill="#E4572E"/>
    <path d="M 0,188 L 0,108 A 108,108 0 0 0 96.0,-49.47726750741192 L 96.0,-161.641578809414 A 188,188 0 0 1 0,188 Z" fill="#A1C181"/>
    <path d="M 8.0,-187.82971010998233 A 188,188 0 0 1 88.0,-166.1324772583615 L 88.0,-43.11912327514441 A 80,80 0 0 1 26.936855637715084,34.60729114464173 L -8.0,43.11912327514441 L -8.0,187.82971010998233 A 188,188 0 0 1 -88.0,166.1324772583615 L -88.0,43.11912327514441 A 80,80 0 0 1 -26.936855637715084,-34.60729114464173 L 8.0,-43.11912327514441 Z" fill="#4F6D7A"/>
  </g>
  <text x="10" y="20" text-anchor="start" font-family="monospace" font-size="10" fill="#333">W=80</text>
  <text x="10" y="32" text-anchor="start" font-family="monospace" font-size="10" fill="#333">Ri=108</text>
  <text x="10" y="44" text-anchor="start" font-family="monospace" font-size="10" fill="#333">G=0.10</text>
  <text x="10" y="56" text-anchor="start" font-family="monospace" font-size="9" fill="#999">slope=-0.244</text>
  <text x="10" y="66" text-anchor="start" font-family="monospace" font-size="9" fill="#999">angle=13.7°</text>
  <g transform="translate(600.0,200.0) scale(0.7)">
    <path d="M 0,-200 L 0,-120 A 120,120 0 0 0 -104.0,59.86651818838306 L -104.0,170.83325203250098 A 200,200 0 0 1 0,-200 Z" fill="#E4572E"/>
    <path d="M 0,200 L 0,120 A 120,120 0 0 0 104.0,-59.86651818838306 L 104.0,-170.83325203250098 A 200,200 0 0 1 0,200 Z" fill="#A1C181"/>
    <path d="M 12.0,-199.63967541548448 A 200,200 0 0 1 92.0,-177.5837830433849 L 92.0,-47.17717557743939 A 80,80 0 0 1 39.9816479000044,27.769654781156696 L -12.0,47.17717557743939 L -12.0,199.63967541548448 A 200,200 0 0 1 -92.0,177.5837830433849 L -92.0,47.17717557743939 A 80,80 0 0 1 -39.9816479000044,-27.769654781156696 L 12.0,-47.17717557743939 Z" fill="#4F6D7A"/>
  </g>
  <text x="410" y="20" text-anchor="start" font-family="monospace" font-size="10" fill="#333">W=80</text>
  <text x="410" y="32" text-anchor="start" font-family="monospace" font-size="10" fill="#333">Ri=120</text>
  <text x="410" y="44" text-anchor="start" font-family="monospace" font-size="10" fill="#333">G=0.15</text>
  <text x="410" y="56" text-anchor="start" font-family="monospace" font-size="9" fill="#999">slope=-0.373</text>
  <text x="410" y="66" text-anchor="start" font-family="monospace" font-size="9" fill="#999">angle=20.5°</text>
  <g transform="translate(1000.0,200.0) scale(0.6481481481481481)">
    <path d="M 0,-216 L 0,-136 A 136,136 0 0 0 -112.0,77.14920608794364 L -112.0,184.69434208984313 A 216,216 0 0 1 0,-216 Z" fill="#E4572E"/>
    <path d="M 0,216 L 0,136 A 136,136 0 0 0 112.0,-77.14920608794364 L 112.0,-184.69434208984313 A 216,216 0 0 1 0,216 Z" fill="#A1C181"/>
    <path d="M 16.0,-215.40659228538016 A 216,216 0 0 1 96.0,-193.49418595916518 L 96.0,-53.80586526956664 A 80,80 0 0 1 53.55093525877636,16.83355192219102 L -16.0,53.80586526956664 L -16.0,215.40659228538016 A 216,216 0 0 1 -96.0,193.49418595916518 L -96.0,53.80586526956664 A 80,80 0 0 1 -53.55093525877636,-16.83355192219102 L 16.0,-53.80586526956664 Z" fill="#4F6D7A"/>
  </g>
  <text x="810" y="20" text-anchor="start" font-family="monospace" font-size="10" fill="#333">W=80</text>
  <text x="810" y="32" text-anchor="start" font-family="monospace" font-size="10" fill="#333">Ri=136</text>
  <text x="810" y="44" text-anchor="start" font-family="monospace" font-size="10" fill="#333">G=0.20</text>
  <text x="810" y="56" text-anchor="start" font-family="monospace" font-size="9" fill="#999">slope=-0.532</text>
  <text x="810" y="66" text-anchor="start" font-family="monospace" font-size="9" fill="#999">angle=28.0°</text>
  <g transform="translate(1400.0,200.0) scale(0.603448275862069)">
    <path d="M 0,-232 L 0,-152 A 152,152 0 0 0 -120.0,93.29523031752481 L -120.0,198.5547783358537 A 232,232 0 0 1 0,-232 Z" fill="#E4572E"/>
    <path d="M 0,232 L 0,152 A 152,152 0 0 0 120.0,-93.29523031752481 L 120.0,-198.5547783358537 A 232,232 0 0 1 0,232 Z" fill="#A1C181"/>
    <path d="M 20.0,-231.13632341109866 A 232,232 0 0 1 100.0,-209.3418257300724 L 100.0,-61.31486105136803 A 80,80 0 0 1 64.27477361390198,5.316546118507418 L -20.0,61.31486105136803 L -20.0,231.13632341109866 A 232,232 0 0 1 -100.0,209.3418257300724 L -100.0,61.31486105136803 A 80,80 0 0 1 -64.27477361390198,-5.316546118507418 L 20.0,-61.31486105136803 Z" fill="#4F6D7A"/>
  </g>
  <text x="1210" y="20" text-anchor="start" font-family="monospace" font-size="10" fill="#333">W=80</text>
  <text x="1210" y="32" text-anchor="start" font-family="monospace" font-size="10" fill="#333">Ri=152</text>
  <text x="1210" y="44" text-anchor="start" font-family="monospace" font-size="10" fill="#333">G=0.25</text>
  <text x="1210" y="56" text-anchor="start" font-family="monospace" font-size="9" fill="#999">slope=-0.664</text>
  <text x="1210" y="66" text-anchor="start" font-family="monospace" font-size="9" fill="#999">angle=33.6°</text>

  <!-- Row 2: W = 100 -->
  <text x="15" y="600.0" text-anchor="start" font-family="monospace" font-size="16" font-weight="bold" transform="rotate(-90 15 600.0)">W = 100</text>
  <g transform="translate(200.0,600.0) scale(0.5957446808510638)">
    <path d="M 0,-235 L 0,-135 A 135,135 0 0 0 -120.0,61.84658438426491 L -120.0,202.0519735117675 A 235,235 0 0 1 0,-235 Z" fill="#E4572E"/>
    <path d="M 0,235 L 0,135 A 135,135 0 0 0 120.0,-61.84658438426491 L 120.0,-202.0519735117675 A 235,235 0 0 1 0,235 Z" fill="#A1C181"/>
    <path d="M 10.0,-234.7871376374779 A 235,235 0 0 1 110.00000000000001,-207.66559657295187 L 110.00000000000001,-53.89890409393052 A 100,100 0 0 1 33.671069547143844,43.25911393080215 L -10.0,53.89890409393052 L -10.0,234.7871376374779 A 235,235 0 0 1 -110.00000000000001,207.66559657295187 L -110.00000000000001,53.89890409393052 A 100,100 0 0 1 -33.671069547143844,-43.25911393080215 L 10.0,-53.89890409393052 Z" fill="#4F6D7A"/>
  </g>
  <text x="10" y="420" text-anchor="start" font-family="monospace" font-size="10" fill="#333">W=100</text>
  <text x="10" y="432" text-anchor="start" font-family="monospace" font-size="10" fill="#333">Ri=135</text>
  <text x="10" y="444" text-anchor="start" font-family="monospace" font-size="10" fill="#333">G=0.10</text>
  <text x="10" y="456" text-anchor="start" font-family="monospace" font-size="9" fill="#999">slope=-0.244</text>
  <text x="10" y="466" text-anchor="start" font-family="monospace" font-size="9" fill="#999">angle=13.7°</text>
  <g transform="translate(600.0,600.0) scale(0.56)">
    <path d="M 0,-250 L 0,-150 A 150,150 0 0 0 -130.0,74.83314773547883 L -130.0,213.5415650406262 A 250,250 0 0 1 0,-250 Z" fill="#E4572E"/>
    <path d="M 0,250 L 0,150 A 150,150 0 0 0 130.0,-74.83314773547883 L 130.0,-213.5415650406262 A 250,250 0 0 1 0,250 Z" fill="#A1C181"/>
    <path d="M 15.0,-249.5495942693556 A 250,250 0 0 1 114.99999999999999,-221.97972880423114 L 114.99999999999999,-58.971469471799246 A 100,100 0 0 1 49.9770598750055,34.71206847644586 L -15.0,58.971469471799246 L -15.0,249.5495942693556 A 250,250 0 0 1 -114.99999999999999,221.97972880423114 L -114.99999999999999,58.971469471799246 A 100,100 0 0 1 -49.9770598750055,-34.71206847644586 L 15.0,-58.971469471799246 Z" fill="#4F6D7A"/>
  </g>
  <text x="410" y="420" text-anchor="start" font-family="monospace" font-size="10" fill="#333">W=100</text>
  <text x="410" y="432" text-anchor="start" font-family="monospace" font-size="10" fill="#333">Ri=150</text>
  <text x="410" y="444" text-anchor="start" font-family="monospace" font-size="10" fill="#333">G=0.15</text>
  <text x="410" y="456" text-anchor="start" font-family="monospace" font-size="9" fill="#999">slope=-0.373</text>
  <text x="410" y="466" text-anchor="start" font-family="monospace" font-size="9" fill="#999">angle=20.5°</text>
  <g transform="translate(1000.0,600.0) scale(0.5185185185185185)">
    <path d="M 0,-270 L 0,-170 A 170,170 0 0 0 -140.0,96.43650760992955 L -140.0,230.8679276123039 A 270,270 0 0 1 0,-270 Z" fill="#E4572E"/>
    <path d="M 0,270 L 0,170 A 170,170 0 0 0 140.0,-96.43650760992955 L 140.0,-230.8679276123039 A 270,270 0 0 1 0,270 Z" fill="#A1C181"/>
    <path d="M 20.0,-269.2582403567252 A 270,270 0 0 1 120.0,-241.8677324489565 L 120.0,-67.2573315869583 A 100,100 0 0 1 66.93866907347044,21.04193990273876 L -20.0,67.2573315869583 L -20.0,269.2582403567252 A 270,270 0 0 1 -120.0,241.8677324489565 L -120.0,67.2573315869583 A 100,100 0 0 1 -66.93866907347044,-21.04193990273876 L 20.0,-67.2573315869583 Z" fill="#4F6D7A"/>
  </g>
  <text x="810" y="420" text-anchor="start" font-family="monospace" font-size="10" fill="#333">W=100</text>
  <text x="810" y="432" text-anchor="start" font-family="monospace" font-size="10" fill="#333">Ri=170</text>
  <text x="810" y="444" text-anchor="start" font-family="monospace" font-size="10" fill="#333">G=0.20</text>
  <text x="810" y="456" text-anchor="start" font-family="monospace" font-size="9" fill="#999">slope=-0.532</text>
  <text x="810" y="466" text-anchor="start" font-family="monospace" font-size="9" fill="#999">angle=28.0°</text>
  <g transform="translate(1400.0,600.0) scale(0.4827586206896552)">
    <path d="M 0,-290 L 0,-190 A 190,190 0 0 0 -150.0,116.61903789690601 L -150.0,248.19347291981714 A 290,290 0 0 1 0,-290 Z" fill="#E4572E"/>
    <path d="M 0,290 L 0,190 A 190,190 0 0 0 150.0,-116.61903789690601 L 150.0,-248.19347291981714 A 290,290 0 0 1 0,290 Z" fill="#A1C181"/>
    <path d="M 25.0,-288.92040426387337 A 290,290 0 0 1 125.0,-261.6772821625905 L 125.0,-76.64357631421001 A 100,100 0 0 1 80.34346701737746,6.645682648134311 L -25.0,76.64357631421001 L -25.0,288.92040426387337 A 290,290 0 0 1 -125.0,261.6772821625905 L -125.0,76.64357631421001 A 100,100 0 0 1 -80.34346701737746,-6.645682648134311 L 25.0,-76.64357631421001 Z" fill="#4F6D7A"/>
  </g>
  <text x="1210" y="420" text-anchor="start" font-family="monospace" font-size="10" fill="#333">W=100</text>
  <text x="1210" y="432" text-anchor="start" font-family="monospace" font-size="10" fill="#333">Ri=190</text>
  <text x="1210" y="444" text-anchor="start" font-family="monospace" font-size="10" fill="#333">G=0.25</text>
  <text x="1210" y="456" text-anchor="start" font-family="monospace" font-size="9" fill="#999">slope=-0.664</text>
  <text x="1210" y="466" text-anchor="start" font-family="monospace" font-size="9" fill="#999">angle=33.6°</text>

  <!-- Row 3: W = 120 -->
  <text x="15" y="1000.0" text-anchor="start" font-family="monospace" font-size="16" font-weight="bold" transform="rotate(-90 15 1000.0)">W = 120</text>
  <g transform="translate(200.0,1000.0) scale(0.49645390070921985)">
    <path d="M 0,-282 L 0,-162 A 162,162 0 0 0 -144.0,74.21590126111789 L -144.0,242.462368214121 A 282,282 0 0 1 0,-282 Z" fill="#E4572E"/>
    <path d="M 0,282 L 0,162 A 162,162 0 0 0 144.0,-74.21590126111789 L 144.0,-242.462368214121 A 282,282 0 0 1 0,282 Z" fill="#A1C181"/>
    <path d="M 12.0,-281.7445651649735 A 282,282 0 0 1 132.0,-249.19871588754225 L 132.0,-64.67868491271662 A 120,120 0 0 1 40.405283456572604,51.91093671696258 L -12.0,64.67868491271662 L -12.0,281.7445651649735 A 282,282 0 0 1 -132.0,249.19871588754225 L -132.0,64.67868491271662 A 120,120 0 0 1 -40.405283456572604,-51.91093671696258 L 12.0,-64.67868491271662 Z" fill="#4F6D7A"/>
  </g>
  <text x="10" y="820" text-anchor="start" font-family="monospace" font-size="10" fill="#333">W=120</text>
  <text x="10" y="832" text-anchor="start" font-family="monospace" font-size="10" fill="#333">Ri=162</text>
  <text x="10" y="844" text-anchor="start" font-family="monospace" font-size="10" fill="#333">G=0.10</text>
  <text x="10" y="856" text-anchor="start" font-family="monospace" font-size="9" fill="#999">slope=-0.244</text>
  <text x="10" y="866" text-anchor="start" font-family="monospace" font-size="9" fill="#999">angle=13.7°</text>
  <g transform="translate(600.0,1000.0) scale(0.4666666666666667)">
    <path d="M 0,-300 L 0,-180 A 180,180 0 0 0 -156.0,89.7997772825746 L -156.0,256.24987804875144 A 300,300 0 0 1 0,-300 Z" fill="#E4572E"/>
    <path d="M 0,300 L 0,180 A 180,180 0 0 0 156.0,-89.7997772825746 L 156.0,-256.24987804875144 A 300,300 0 0 1 0,300 Z" fill="#A1C181"/>
    <path d="M 18.0,-299.4595131232267 A 300,300 0 0 1 138.0,-266.37567456507736 L 138.0,-70.76576336615909 A 120,120 0 0 1 59.97247185000661,41.65448217173504 L -18.0,70.76576336615909 L -18.0,299.4595131232267 A 300,300 0 0 1 -138.0,266.37567456507736 L -138.0,70.76576336615909 A 120,120 0 0 1 -59.97247185000661,-41.65448217173504 L 18.0,-70.76576336615909 Z" fill="#4F6D7A"/>
  </g>
  <text x="410" y="820" text-anchor="start" font-family="monospace" font-size="10" fill="#333">W=120</text>
  <text x="410" y="832" text-anchor="start" font-family="monospace" font-size="10" fill="#333">Ri=180</text>
  <text x="410" y="844" text-anchor="start" font-family="monospace" font-size="10" fill="#333">G=0.15</text>
  <text x="410" y="856" text-anchor="start" font-family="monospace" font-size="9" fill="#999">slope=-0.373</text>
  <text x="410" y="866" text-anchor="start" font-family="monospace" font-size="9" fill="#999">angle=20.5°</text>
  <g transform="translate(1000.0,1000.0) scale(0.43209876543209874)">
    <path d="M 0,-324 L 0,-204 A 204,204 0 0 0 -168.0,115.72380913191546 L -168.0,277.04151313476467 A 324,324 0 0 1 0,-324 Z" fill="#E4572E"/>
    <path d="M 0,324 L 0,204 A 204,204 0 0 0 168.0,-115.72380913191546 L 168.0,-277.04151313476467 A 324,324 0 0 1 0,324 Z" fill="#A1C181"/>
    <path d="M 24.0,-323.10988842807024 A 324,324 0 0 1 144.0,-290.24127893874777 L 144.0,-80.70879790434995 A 120,120 0 0 1 80.32640288816451,25.25032788328653 L -24.0,80.70879790434995 L -24.0,323.10988842807024 A 324,324 0 0 1 -144.0,290.24127893874777 L -144.0,80.70879790434995 A 120,120 0 0 1 -80.32640288816451,-25.25032788328653 L 24.0,-80.70879790434995 Z" fill="#4F6D7A"/>
  </g>
  <text x="810" y="820" text-anchor="start" font-family="monospace" font-size="10" fill="#333">W=120</text>
  <text x="810" y="832" text-anchor="start" font-family="monospace" font-size="10" fill="#333">Ri=204</text>
  <text x="810" y="844" text-anchor="start" font-family="monospace" font-size="10" fill="#333">G=0.20</text>
  <text x="810" y="856" text-anchor="start" font-family="monospace" font-size="9" fill="#999">slope=-0.532</text>
  <text x="810" y="866" text-anchor="start" font-family="monospace" font-size="9" fill="#999">angle=28.0°</text>
  <g transform="translate(1400.0,1000.0) scale(0.40229885057471265)">
    <path d="M 0,-348 L 0,-228 A 228,228 0 0 0 -180.0,139.9428454762872 L -180.0,297.83216750378057 A 348,348 0 0 1 0,-348 Z" fill="#E4572E"/>
    <path d="M 0,348 L 0,228 A 228,228 0 0 0 180.0,-139.9428454762872 L 180.0,-297.83216750378057 A 348,348 0 0 1 0,348 Z" fill="#A1C181"/>
    <path d="M 30.0,-346.704485116648 A 348,348 0 0 1 150.0,-314.0127385951086 L 150.0,-91.97229157705203 A 120,120 0 0 1 96.41216042085297,7.974819177761134 L -30.0,91.97229157705203 L -30.0,346.704485116648 A 348,348 0 0 1 -150.0,314.0127385951086 L -150.0,91.97229157705203 A 120,120 0 0 1 -96.41216042085297,-7.974819177761134 L 30.0,-91.97229157705203 Z" fill="#4F6D7A"/>
  </g>
  <text x="1210" y="820" text-anchor="start" font-family="monospace" font-size="10" fill="#333">W=120</text>
  <text x="1210" y="832" text-anchor="start" font-family="monospace" font-size="10" fill="#333">Ri=228</text>
  <text x="1210" y="844" text-anchor="start" font-family="monospace" font-size="10" fill="#333">G=0.25</text>
  <text x="1210" y="856" text-anchor="start" font-family="monospace" font-size="9" fill="#999">slope=-0.664</text>
  <text x="1210" y="866" text-anchor="start" font-family="monospace" font-size="9" fill="#999">angle=33.6°</text>

  <!-- Row 4: W = 140 -->
  <text x="15" y="1400.0" text-anchor="start" font-family="monospace" font-size="16" font-weight="bold" transform="rotate(-90 15 1400.0)">W = 140</text>
  <g transform="translate(200.0,1400.0) scale(0.425531914893617)">
    <path d="M 0,-329 L 0,-189 A 189,189 0 0 0 -168.0,86.58521813797087 L -168.0,282.8727629164745 A 329,329 0 0 1 0,-329 Z" fill="#E4572E"/>
    <path d="M 0,329 L 0,189 A 189,189 0 0 0 168.0,-86.58521813797087 L 168.0,-282.8727629164745 A 329,329 0 0 1 0,329 Z" fill="#A1C181"/>
    <path d="M 14.0,-328.7019926924691 A 329,329 0 0 1 154.0,-290.73183520213263 L 154.0,-75.45846573150271 A 140,140 0 0 1 47.13949736600139,60.56275950312303 L -14.0,75.45846573150271 L -14.0,328.7019926924691 A 329,329 0 0 1 -154.0,290.73183520213263 L -154.0,75.45846573150271 A 140,140 0 0 1 -47.13949736600139,-60.56275950312303 L 14.0,-75.45846573150271 Z" fill="#4F6D7A"/>
  </g>
  <text x="10" y="1220" text-anchor="start" font-family="monospace" font-size="10" fill="#333">W=140</text>
  <text x="10" y="1232" text-anchor="start" font-family="monospace" font-size="10" fill="#333">Ri=189</text>
  <text x="10" y="1244" text-anchor="start" font-family="monospace" font-size="10" fill="#333">G=0.10</text>
  <text x="10" y="1256" text-anchor="start" font-family="monospace" font-size="9" fill="#999">slope=-0.244</text>
  <text x="10" y="1266" text-anchor="start" font-family="monospace" font-size="9" fill="#999">angle=13.7°</text>
  <g transform="translate(600.0,1400.0) scale(0.4)">
    <path d="M 0,-350 L 0,-210 A 210,210 0 0 0 -182.0,104.76640682967036 L -182.0,298.95819105687673 A 350,350 0 0 1 0,-350 Z" fill="#E4572E"/>
    <path d="M 0,350 L 0,210 A 210,210 0 0 0 182.0,-104.76640682967036 L 182.0,-298.95819105687673 A 350,350 0 0 1 0,350 Z" fill="#A1C181"/>
    <path d="M 21.0,-349.36943197709786 A 350,350 0 0 1 161.0,-310.7716203259236 L 161.0,-82.56005726051893 A 140,140 0 0 1 69.96788382500769,48.596895867024216 L -21.0,82.56005726051893 L -21.0,349.36943197709786 A 350,350 0 0 1 -161.0,310.7716203259236 L -161.0,82.56005726051893 A 140,140 0 0 1 -69.96788382500769,-48.596895867024216 L 21.0,-82.56005726051893 Z" fill="#4F6D7A"/>
  </g>
  <text x="410" y="1220" text-anchor="start" font-family="monospace" font-size="10" fill="#333">W=140</text>
  <text x="410" y="1232" text-anchor="start" font-family="monospace" font-size="10" fill="#333">Ri=210</text>
  <text x="410" y="1244" text-anchor="start" font-family="monospace" font-size="10" fill="#333">G=0.15</text>
  <text x="410" y="1256" text-anchor="start" font-family="monospace" font-size="9" fill="#999">slope=-0.373</text>
  <text x="410" y="1266" text-anchor="start" font-family="monospace" font-size="9" fill="#999">angle=20.5°</text>
  <g transform="translate(1000.0,1400.0) scale(0.37037037037037035)">
    <path d="M 0,-378 L 0,-238 A 238,238 0 0 0 -196.0,135.01111065390137 L -196.0,323.2150986572255 A 378,378 0 0 1 0,-378 Z" fill="#E4572E"/>
    <path d="M 0,378 L 0,238 A 238,238 0 0 0 196.0,-135.01111065390137 L 196.0,-323.2150986572255 A 378,378 0 0 1 0,378 Z" fill="#A1C181"/>
    <path d="M 28.0,-376.9615364994153 A 378,378 0 0 1 168.0,-338.61482542853906 L 168.0,-94.16026422174161 A 140,140 0 0 1 93.71413670285864,29.458715863834286 L -28.0,94.16026422174161 L -28.0,376.9615364994153 A 378,378 0 0 1 -168.0,338.61482542853906 L -168.0,94.16026422174161 A 140,140 0 0 1 -93.71413670285864,-29.458715863834286 L 28.0,-94.16026422174161 Z" fill="#4F6D7A"/>
  </g>
  <text x="810" y="1220" text-anchor="start" font-family="monospace" font-size="10" fill="#333">W=140</text>
  <text x="810" y="1232" text-anchor="start" font-family="monospace" font-size="10" fill="#333">Ri=238</text>
  <text x="810" y="1244" text-anchor="start" font-family="monospace" font-size="10" fill="#333">G=0.20</text>
  <text x="810" y="1256" text-anchor="start" font-family="monospace" font-size="9" fill="#999">slope=-0.532</text>
  <text x="810" y="1266" text-anchor="start" font-family="monospace" font-size="9" fill="#999">angle=28.0°</text>
  <g transform="translate(1400.0,1400.0) scale(0.3448275862068966)">
    <path d="M 0,-406 L 0,-266 A 266,266 0 0 0 -210.0,163.2666530556684 L -210.0,347.47086208774397 A 406,406 0 0 1 0,-406 Z" fill="#E4572E"/>
    <path d="M 0,406 L 0,266 A 266,266 0 0 0 210.0,-163.2666530556684 L 210.0,-347.47086208774397 A 406,406 0 0 1 0,406 Z" fill="#A1C181"/>
    <path d="M 35.0,-404.48856596942267 A 406,406 0 0 1 175.0,-366.3481950276267 L 175.0,-107.30100683989404 A 140,140 0 0 1 112.4808538243285,9.30395570738797 L -35.0,107.30100683989404 L -35.0,404.48856596942267 A 406,406 0 0 1 -175.0,366.3481950276267 L -175.0,107.30100683989404 A 140,140 0 0 1 -112.4808538243285,-9.30395570738797 L 35.0,-107.30100683989404 Z" fill="#4F6D7A"/>
  </g>
  <text x="1210" y="1220" text-anchor="start" font-family="monospace" font-size="10" fill="#333">W=140</text>
  <text x="1210" y="1232" text-anchor="start" font-family="monospace" font-size="10" fill="#333">Ri=266</text>
  <text x="1210" y="1244" text-anchor="start" font-family="monospace" font-size="10" fill="#333">G=0.25</text>
  <text x="1210" y="1256" text-anchor="start" font-family="monospace" font-size="9" fill="#999">slope=-0.664</text>
  <text x="1210" y="1266" text-anchor="start" font-family="monospace" font-size="9" fill="#999">angle=33.6°</text>

  <!-- Grid lines -->
  <line x1="400" y1="0" x2="400" y2="1600" stroke="#ccc" stroke-width="1"/>
  <line x1="0" y1="400" x2="1600" y2="400" stroke="#ccc" stroke-width="1"/>
  <line x1="800" y1="0" x2="800" y2="1600" stroke="#ccc" stroke-width="1"/>
  <line x1="0" y1="800" x2="1600" y2="800" stroke="#ccc" stroke-width="1"/>
  <line x1="1200" y1="0" x2="1200" y2="1600" stroke="#ccc" stroke-width="1"/>
  <line x1="0" y1="1200" x2="1600" y2="1200" stroke="#ccc" stroke-width="1"/>
</svg>