<svg width="1600" height="1600" viewBox="0 0 1600 1600" xmlns="http://www.w3.org/2000/svg">
  <!-- 4x4 Logo Parameter Exploration Grid -->
  <!-- Two parameters vary, one constant for direct comparison -->
  <!-- W = 100 (CONSTANT) -->
  <!-- Rows: Ri = 155, 170, 190, 210 (Ri/W ratio increases down) -->
  <!-- Columns: G = 0.10, 0.15, 0.20, 0.25 (gap proportion increases right) -->
  <!-- Slopes range from ~20° to ~38° (very gentle) -->

  <rect width="1600" height="1600" fill="#f5f5f5"/>

  <!-- Column headers (G values) -->
  <text x="200.0" y="30" text-anchor="middle" font-family="monospace" font-size="16" font-weight="bold">G = 0.10</text>
  <text x="600.0" y="30" text-anchor="middle" font-family="monospace" font-size="16" font-weight="bold">G = 0.15</text>
  <text x="1000.0" y="30" text-anchor="middle" font-family="monospace" font-size="16" font-weight="bold">G = 0.20</text>
  <text x="1400.0" y="30" text-anchor="middle" font-family="monospace" font-size="16" font-weight="bold">G = 0.25</text>

  <!-- Row 1: Ri = 155 -->
  <text x="15" y="200.0" text-anchor="start" font-family="monospace" font-size="16" font-weight="bold" transform="rotate(-90 15 200.0)">Ri = 155</text>
  <g transform="translate(200.0,200.0) scale(0.5490196078431373)">
    <path d="M 0,-255 L 0,-155 A 155,155 0 0 0 -120.0,98.10708435174291 L -120.0,225.0 A 255,255 0 0 1 0,-255 Z" fill="#E4572E"/>
    <path d="M 0,255 L 0,155 A 155,155 0 0 0 120.0,-98.10708435174291 L 120.0,-225.0 A 255,255 0 0 1 0,255 Z" fill="#A1C181"/>
    <path d="M 10.0,-254.80384612481814 A 255,255 0 0 1 110.00000000000001,-230.05434140654683 L 110.00000000000001,-60.488305195955164 A 100,100 0 0 1 53.79359606524567,29.41231184127156 L -10.0,60.488305195955164 L -10.0,254.80384612481814 A 255,255 0 0 1 -110.00000000000001,230.05434140654683 L -110.00000000000001,60.488305195955164 A 100,100 0 0 1 -53.79359606524567,-29.41231184127156 L 10.0,-60.488305195955164 Z" fill="#4F6D7A"/>
  </g>
  <text x="10" y="20" text-anchor="start" font-family="monospace" font-size="10" fill="#333">W=100</text>
  <text x="10" y="32" text-anchor="start" font-family="monospace" font-size="10" fill="#333">Ri=155</text>
  <text x="10" y="44" text-anchor="start" font-family="monospace" font-size="10" fill="#333">G=0.10</text>
  <text x="10" y="56" text-anchor="start" font-family="monospace" font-size="9" fill="#999">slope=-0.487</text>
  <text x="10" y="66" text-anchor="start" font-family="monospace" font-size="9" fill="#999">angle=26.0°</text>
  <g transform="translate(600.0,200.0) scale(0.5490196078431373)">
    <path d="M 0,-255 L 0,-155 A 155,155 0 0 0 -130.0,84.40971508067067 L -130.0,219.37410968480305 A 255,255 0 0 1 0,-255 Z" fill="#E4572E"/>
    <path d="M 0,255 L 0,155 A 155,155 0 0 0 130.0,-84.40971508067067 L 130.0,-219.37410968480305 A 255,255 0 0 1 0,255 Z" fill="#A1C181"/>
    <path d="M 15.0,-254.55844122715712 A 255,255 0 0 1 114.99999999999999,-227.59613353482084 L 114.99999999999999,-60.88854778593079 A 100,100 0 0 1 54.52951888236287,30.966866517902808 L -15.0,60.88854778593079 L -15.0,254.55844122715712 A 255,255 0 0 1 -114.99999999999999,227.59613353482084 L -114.99999999999999,60.88854778593079 A 100,100 0 0 1 -54.52951888236287,-30.966866517902808 L 15.0,-60.88854778593079 Z" fill="#4F6D7A"/>
  </g>
  <text x="410" y="20" text-anchor="start" font-family="monospace" font-size="10" fill="#333">W=100</text>
  <text x="410" y="32" text-anchor="start" font-family="monospace" font-size="10" fill="#333">Ri=155</text>
  <text x="410" y="44" text-anchor="start" font-family="monospace" font-size="10" fill="#333">G=0.15</text>
  <text x="410" y="56" text-anchor="start" font-family="monospace" font-size="9" fill="#999">slope=-0.430</text>
  <text x="410" y="66" text-anchor="start" font-family="monospace" font-size="9" fill="#999">angle=23.3°</text>
  <g transform="translate(1000.0,200.0) scale(0.5490196078431373)">
    <path d="M 0,-255 L 0,-155 A 155,155 0 0 0 -140.0,66.52067347825036 L -140.0,213.13141485947116 A 255,255 0 0 1 0,-255 Z" fill="#E4572E"/>
    <path d="M 0,255 L 0,155 A 155,155 0 0 0 140.0,-66.52067347825036 L 140.0,-213.13141485947116 A 255,255 0 0 1 0,255 Z" fill="#A1C181"/>
    <path d="M 20.0,-254.21447637772323 A 255,255 0 0 1 120.0,-225.0 L 120.0,-60.82011169083077 A 100,100 0 0 1 54.937288285056106,32.87826549515299 L -20.0,60.82011169083077 L -20.0,254.21447637772323 A 255,255 0 0 1 -120.0,225.0 L -120.0,60.82011169083077 A 100,100 0 0 1 -54.937288285056106,-32.87826549515299 L 20.0,-60.82011169083077 Z" fill="#4F6D7A"/>
  </g>
  <text x="810" y="20" text-anchor="start" font-family="monospace" font-size="10" fill="#333">W=100</text>
  <text x="810" y="32" text-anchor="start" font-family="monospace" font-size="10" fill="#333">Ri=155</text>
  <text x="810" y="44" text-anchor="start" font-family="monospace" font-size="10" fill="#333">G=0.20</text>
  <text x="810" y="56" text-anchor="start" font-family="monospace" font-size="9" fill="#999">slope=-0.373</text>
  <text x="810" y="66" text-anchor="start" font-family="monospace" font-size="9" fill="#999">angle=20.4°</text>
  <g transform="translate(1400.0,200.0) scale(0.5490196078431373)">
    <path d="M 0,-255 L 0,-155 A 155,155 0 0 0 -150.0,39.05124837953327 L -150.0,206.2159062730128 A 255,255 0 0 1 0,-255 Z" fill="#E4572E"/>
    <path d="M 0,255 L 0,155 A 155,155 0 0 0 150.0,-39.05124837953327 L 150.0,-206.2159062730128 A 255,255 0 0 1 0,255 Z" fill="#A1C181"/>
    <path d="M 25.0,-253.7715508089904 A 255,255 0 0 1 125.0,-222.26110770892868 L 125.0,-60.255408285181595 A 100,100 0 0 1 54.954467840203876,35.15281911901135 L -25.0,60.255408285181595 L -25.0,253.7715508089904 A 255,255 0 0 1 -125.0,222.26110770892868 L -125.0,60.255408285181595 A 100,100 0 0 1 -54.954467840203876,-35.15281911901135 L 25.0,-60.255408285181595 Z" fill="#4F6D7A"/>
  </g>
  <text x="1210" y="20" text-anchor="start" font-family="monospace" font-size="10" fill="#333">W=100</text>
  <text x="1210" y="32" text-anchor="start" font-family="monospace" font-size="10" fill="#333">Ri=155</text>
  <text x="1210" y="44" text-anchor="start" font-family="monospace" font-size="10" fill="#333">G=0.25</text>
  <text x="1210" y="56" text-anchor="start" font-family="monospace" font-size="9" fill="#999">slope=-0.314</text>
  <text x="1210" y="66" text-anchor="start" font-family="monospace" font-size="9" fill="#999">angle=17.4°</text>

  <!-- Row 2: Ri = 170 -->
  <text x="15" y="600.0" text-anchor="start" font-family="monospace" font-size="16" font-weight="bold" transform="rotate(-90 15 600.0)">Ri = 170</text>
  <g transform="translate(200.0,600.0) scale(0.5185185185185185)">
    <path d="M 0,-270 L 0,-170 A 170,170 0 0 0 -120.0,120.41594578792295 L -120.0,241.8677324489565 A 270,270 0 0 1 0,-270 Z" fill="#E4572E"/>
    <path d="M 0,270 L 0,170 A 170,170 0 0 0 120.0,-120.41594578792295 L 120.0,-241.8677324489565 A 270,270 0 0 1 0,270 Z" fill="#A1C181"/>
    <path d="M 10.0,-269.81475126464085 A 270,270 0 0 1 110.00000000000001,-246.57656011875906 L 110.00000000000001,-65.72323967793498 A 100,100 0 0 1 63.840534704986474,18.545359590601265 L -10.0,65.72323967793498 L -10.0,269.81475126464085 A 270,270 0 0 1 -110.00000000000001,246.57656011875906 L -110.00000000000001,65.72323967793498 A 100,100 0 0 1 -63.840534704986474,-18.545359590601265 L 10.0,-65.72323967793498 Z" fill="#4F6D7A"/>
  </g>
  <text x="10" y="420" text-anchor="start" font-family="monospace" font-size="10" fill="#333">W=100</text>
  <text x="10" y="432" text-anchor="start" font-family="monospace" font-size="10" fill="#333">Ri=170</text>
  <text x="10" y="444" text-anchor="start" font-family="monospace" font-size="10" fill="#333">G=0.10</text>
  <text x="10" y="456" text-anchor="start" font-family="monospace" font-size="9" fill="#999">slope=-0.639</text>
  <text x="10" y="466" text-anchor="start" font-family="monospace" font-size="9" fill="#999">angle=32.6°</text>
  <g transform="translate(600.0,600.0) scale(0.5185185185185185)">
    <path d="M 0,-270 L 0,-170 A 170,170 0 0 0 -130.0,109.54451150103323 L -130.0,236.64319132398464 A 270,270 0 0 1 0,-270 Z" fill="#E4572E"/>
    <path d="M 0,270 L 0,170 A 170,170 0 0 0 130.0,-109.54451150103323 L 130.0,-236.64319132398464 A 270,270 0 0 1 0,270 Z" fill="#A1C181"/>
    <path d="M 15.0,-269.58301133417143 A 270,270 0 0 1 114.99999999999999,-244.28467000612216 L 114.99999999999999,-66.70153512965892 A 100,100 0 0 1 65.49330868442085,19.61431380957002 L -15.0,66.70153512965892 L -15.0,269.58301133417143 A 270,270 0 0 1 -114.99999999999999,244.28467000612216 L -114.99999999999999,66.70153512965892 A 100,100 0 0 1 -65.49330868442085,-19.61431380957002 L 15.0,-66.70153512965892 Z" fill="#4F6D7A"/>
  </g>
  <text x="410" y="420" text-anchor="start" font-family="monospace" font-size="10" fill="#333">W=100</text>
  <text x="410" y="432" text-anchor="start" font-family="monospace" font-size="10" fill="#333">Ri=170</text>
  <text x="410" y="444" text-anchor="start" font-family="monospace" font-size="10" fill="#333">G=0.15</text>
  <text x="410" y="456" text-anchor="start" font-family="monospace" font-size="9" fill="#999">slope=-0.585</text>
  <text x="410" y="466" text-anchor="start" font-family="monospace" font-size="9" fill="#999">angle=30.3°</text>
  <g transform="translate(1000.0,600.0) scale(0.5185185185185185)">
    <path d="M 0,-270 L 0,-170 A 170,170 0 0 0 -140.0,96.43650760992955 L -140.0,230.8679276123039 A 270,270 0 0 1 0,-270 Z" fill="#E4572E"/>
    <path d="M 0,270 L 0,170 A 170,170 0 0 0 140.0,-96.43650760992955 L 140.0,-230.8679276123039 A 270,270 0 0 1 0,270 Z" fill="#A1C181"/>
    <path d="M 20.0,-269.2582403567252 A 270,270 0 0 1 120.0,-241.8677324489565 L 120.0,-67.2573315869583 A 100,100 0 0 1 66.93866907347044,21.04193990273876 L -20.0,67.2573315869583 L -20.0,269.2582403567252 A 270,270 0 0 1 -120.0,241.8677324489565 L -120.0,67.2573315869583 A 100,100 0 0 1 -66.93866907347044,-21.04193990273876 L 20.0,-67.2573315869583 Z" fill="#4F6D7A"/>
  </g>
  <text x="810" y="420" text-anchor="start" font-family="monospace" font-size="10" fill="#333">W=100</text>
  <text x="810" y="432" text-anchor="start" font-family="monospace" font-size="10" fill="#333">Ri=170</text>
  <text x="810" y="444" text-anchor="start" font-family="monospace" font-size="10" fill="#333">G=0.20</text>
  <text x="810" y="456" text-anchor="start" font-family="monospace" font-size="9" fill="#999">slope=-0.532</text>
  <text x="810" y="466" text-anchor="start" font-family="monospace" font-size="9" fill="#999">angle=28.0°</text>
  <g transform="translate(1400.0,600.0) scale(0.5185185185185185)">
    <path d="M 0,-270 L 0,-170 A 170,170 0 0 0 -150.0,80.0 L -150.0,224.4994432064365 A 270,270 0 0 1 0,-270 Z" fill="#E4572E"/>
    <path d="M 0,270 L 0,170 A 170,170 0 0 0 150.0,-80.0 L 150.0,-224.4994432064365 A 270,270 0 0 1 0,270 Z" fill="#A1C181"/>
    <path d="M 25.0,-268.8401011754013 A 270,270 0 0 1 125.0,-239.3219588754864 L 125.0,-67.38396814094203 A 100,100 0 0 1 68.15078517019805,22.826949929962325 L -25.0,67.38396814094203 L -25.0,268.8401011754013 A 270,270 0 0 1 -125.0,239.3219588754864 L -125.0,67.38396814094203 A 100,100 0 0 1 -68.15078517019805,-22.826949929962325 L 25.0,-67.38396814094203 Z" fill="#4F6D7A"/>
  </g>
  <text x="1210" y="420" text-anchor="start" font-family="monospace" font-size="10" fill="#333">W=100</text>
  <text x="1210" y="432" text-anchor="start" font-family="monospace" font-size="10" fill="#333">Ri=170</text>
  <text x="1210" y="444" text-anchor="start" font-family="monospace" font-size="10" fill="#333">G=0.25</text>
  <text x="1210" y="456" text-anchor="start" font-family="monospace" font-size="9" fill="#999">slope=-0.478</text>
  <text x="1210" y="466" text-anchor="start" font-family="monospace" font-size="9" fill="#999">angle=25.6°</text>

  <!-- Row 3: Ri = 190 -->
  <text x="15" y="1000.0" text-anchor="start" font-family="monospace" font-size="16" font-weight="bold" transform="rotate(-90 15 1000.0)">Ri = 190</text>
  <g transform="translate(200.0,1000.0) scale(0.4827586206896552)">
    <path d="M 0,-290 L 0,-190 A 190,190 0 0 0 -120.0,147.30919862656236 L -120.0,264.0075756488817 A 290,290 0 0 1 0,-290 Z" fill="#E4572E"/>
    <path d="M 0,290 L 0,190 A 190,190 0 0 0 120.0,-147.30919862656236 L 120.0,-264.0075756488817 A 290,290 0 0 1 0,290 Z" fill="#A1C181"/>
    <path d="M 10.0,-289.8275349237888 A 290,290 0 0 1 110.00000000000001,-268.32815729997475 L 110.00000000000001,-72.87792412537007 A 100,100 0 0 1 73.42709960908077,4.433155515130011 L -10.0,72.87792412537007 L -10.0,289.8275349237888 A 290,290 0 0 1 -110.00000000000001,268.32815729997475 L -110.00000000000001,72.87792412537007 A 100,100 0 0 1 -73.42709960908077,-4.433155515130011 L 10.0,-72.87792412537007 Z" fill="#4F6D7A"/>
  </g>
  <text x="10" y="820" text-anchor="start" font-family="monospace" font-size="10" fill="#333">W=100</text>
  <text x="10" y="832" text-anchor="start" font-family="monospace" font-size="10" fill="#333">Ri=190</text>
  <text x="10" y="844" text-anchor="start" font-family="monospace" font-size="10" fill="#333">G=0.10</text>
  <text x="10" y="856" text-anchor="start" font-family="monospace" font-size="9" fill="#999">slope=-0.820</text>
  <text x="10" y="866" text-anchor="start" font-family="monospace" font-size="9" fill="#999">angle=39.4°</text>
  <g transform="translate(600.0,1000.0) scale(0.4827586206896552)">
    <path d="M 0,-290 L 0,-190 A 190,190 0 0 0 -130.0,138.5640646055102 L -130.0,259.2296279363144 A 290,290 0 0 1 0,-290 Z" fill="#E4572E"/>
    <path d="M 0,290 L 0,190 A 190,190 0 0 0 130.0,-138.5640646055102 L 130.0,-259.2296279363144 A 290,290 0 0 1 0,290 Z" fill="#A1C181"/>
    <path d="M 15.0,-289.6118091514916 A 290,290 0 0 1 114.99999999999999,-266.22359023948275 L 114.99999999999999,-74.52684309172011 A 100,100 0 0 1 75.8687981306233,4.814126237709118 L -15.0,74.52684309172011 L -15.0,289.6118091514916 A 290,290 0 0 1 -114.99999999999999,266.22359023948275 L -114.99999999999999,74.52684309172011 A 100,100 0 0 1 -75.8687981306233,-4.814126237709118 L 15.0,-74.52684309172011 Z" fill="#4F6D7A"/>
  </g>
  <text x="410" y="820" text-anchor="start" font-family="monospace" font-size="10" fill="#333">W=100</text>
  <text x="410" y="832" text-anchor="start" font-family="monospace" font-size="10" fill="#333">Ri=190</text>
  <text x="410" y="844" text-anchor="start" font-family="monospace" font-size="10" fill="#333">G=0.15</text>
  <text x="410" y="856" text-anchor="start" font-family="monospace" font-size="9" fill="#999">slope=-0.767</text>
  <text x="410" y="866" text-anchor="start" font-family="monospace" font-size="9" fill="#999">angle=37.5°</text>
  <g transform="translate(1000.0,1000.0) scale(0.4827586206896552)">
    <path d="M 0,-290 L 0,-190 A 190,190 0 0 0 -140.0,128.4523257866513 L -140.0,253.96850198400588 A 290,290 0 0 1 0,-290 Z" fill="#E4572E"/>
    <path d="M 0,290 L 0,190 A 190,190 0 0 0 140.0,-128.4523257866513 L 140.0,-253.96850198400588 A 290,290 0 0 1 0,290 Z" fill="#A1C181"/>
    <path d="M 20.0,-289.30952282978865 A 290,290 0 0 1 120.0,-264.0075756488817 L 120.0,-75.78018648138755 A 100,100 0 0 1 78.17790063928055,5.5545040092389115 L -20.0,75.78018648138755 L -20.0,289.30952282978865 A 290,290 0 0 1 -120.0,264.0075756488817 L -120.0,75.78018648138755 A 100,100 0 0 1 -78.17790063928055,-5.5545040092389115 L 20.0,-75.78018648138755 Z" fill="#4F6D7A"/>
  </g>
  <text x="810" y="820" text-anchor="start" font-family="monospace" font-size="10" fill="#333">W=100</text>
  <text x="810" y="832" text-anchor="start" font-family="monospace" font-size="10" fill="#333">Ri=190</text>
  <text x="810" y="844" text-anchor="start" font-family="monospace" font-size="10" fill="#333">G=0.20</text>
  <text x="810" y="856" text-anchor="start" font-family="monospace" font-size="9" fill="#999">slope=-0.715</text>
  <text x="810" y="866" text-anchor="start" font-family="monospace" font-size="9" fill="#999">angle=35.6°</text>
  <g transform="translate(1400.0,1000.0) scale(0.4827586206896552)">
    <path d="M 0,-290 L 0,-190 A 190,190 0 0 0 -150.0,116.61903789690601 L -150.0,248.19347291981714 A 290,290 0 0 1 0,-290 Z" fill="#E4572E"/>
    <path d="M 0,290 L 0,190 A 190,190 0 0 0 150.0,-116.61903789690601 L 150.0,-248.19347291981714 A 290,290 0 0 1 0,290 Z" fill="#A1C181"/>
    <path d="M 25.0,-288.92040426387337 A 290,290 0 0 1 125.0,-261.6772821625905 L 125.0,-76.64357631421001 A 100,100 0 0 1 80.34346701737746,6.645682648134311 L -25.0,76.64357631421001 L -25.0,288.92040426387337 A 290,290 0 0 1 -125.0,261.6772821625905 L -125.0,76.64357631421001 A 100,100 0 0 1 -80.34346701737746,-6.645682648134311 L 25.0,-76.64357631421001 Z" fill="#4F6D7A"/>
  </g>
  <text x="1210" y="820" text-anchor="start" font-family="monospace" font-size="10" fill="#333">W=100</text>
  <text x="1210" y="832" text-anchor="start" font-family="monospace" font-size="10" fill="#333">Ri=190</text>
  <text x="1210" y="844" text-anchor="start" font-family="monospace" font-size="10" fill="#333">G=0.25</text>
  <text x="1210" y="856" text-anchor="start" font-family="monospace" font-size="9" fill="#999">slope=-0.664</text>
  <text x="1210" y="866" text-anchor="start" font-family="monospace" font-size="9" fill="#999">angle=33.6°</text>

  <!-- Row 4: Ri = 210 -->
  <text x="15" y="1400.0" text-anchor="start" font-family="monospace" font-size="16" font-weight="bold" transform="rotate(-90 15 1400.0)">Ri = 210</text>
  <g transform="translate(200.0,1400.0) scale(0.45161290322580644)">
    <path d="M 0,-310 L 0,-210 A 210,210 0 0 0 -120.0,172.33687939614086 L -120.0,285.832118559129 A 310,310 0 0 1 0,-310 Z" fill="#E4572E"/>
    <path d="M 0,310 L 0,210 A 210,210 0 0 0 120.0,-172.33687939614086 L 120.0,-285.832118559129 A 310,310 0 0 1 0,310 Z" fill="#A1C181"/>
    <path d="M 10.0,-309.83866769659335 A 310,310 0 0 1 110.00000000000001,-289.8275349237888 L 110.00000000000001,-80.14211346235213 A 100,100 0 0 1 80.26216236547033,-8.985746637391998 L -10.0,80.14211346235213 L -10.0,309.83866769659335 A 310,310 0 0 1 -110.00000000000001,289.8275349237888 L -110.00000000000001,80.14211346235213 A 100,100 0 0 1 -80.26216236547033,8.985746637391998 L 10.0,-80.14211346235213 Z" fill="#4F6D7A"/>
  </g>
  <text x="10" y="1220" text-anchor="start" font-family="monospace" font-size="10" fill="#333">W=100</text>
  <text x="10" y="1232" text-anchor="start" font-family="monospace" font-size="10" fill="#333">Ri=210</text>
  <text x="10" y="1244" text-anchor="start" font-family="monospace" font-size="10" fill="#333">G=0.10</text>
  <text x="10" y="1256" text-anchor="start" font-family="monospace" font-size="9" fill="#999">slope=-0.987</text>
  <text x="10" y="1266" text-anchor="start" font-family="monospace" font-size="9" fill="#999">angle=44.6°</text>
  <g transform="translate(600.0,1400.0) scale(0.45161290322580644)">
    <path d="M 0,-310 L 0,-210 A 210,210 0 0 0 -130.0,164.92422502470643 L -130.0,281.42494558940575 A 310,310 0 0 1 0,-310 Z" fill="#E4572E"/>
    <path d="M 0,310 L 0,210 A 210,210 0 0 0 130.0,-164.92422502470643 L 130.0,-281.42494558940575 A 310,310 0 0 1 0,310 Z" fill="#A1C181"/>
    <path d="M 15.0,-309.6368841078207 A 310,310 0 0 1 114.99999999999999,-287.88018340969563 L 114.99999999999999,-82.38941318786144 A 100,100 0 0 1 83.22795182638225,-9.28027155990317 L -15.0,82.38941318786144 L -15.0,309.6368841078207 A 310,310 0 0 1 -114.99999999999999,287.88018340969563 L -114.99999999999999,82.38941318786144 A 100,100 0 0 1 -83.22795182638225,9.28027155990317 L 15.0,-82.38941318786144 Z" fill="#4F6D7A"/>
  </g>
  <text x="410" y="1220" text-anchor="start" font-family="monospace" font-size="10" fill="#333">W=100</text>
  <text x="410" y="1232" text-anchor="start" font-family="monospace" font-size="10" fill="#333">Ri=210</text>
  <text x="410" y="1244" text-anchor="start" font-family="monospace" font-size="10" fill="#333">G=0.15</text>
  <text x="410" y="1256" text-anchor="start" font-family="monospace" font-size="9" fill="#999">slope=-0.933</text>
  <text x="410" y="1266" text-anchor="start" font-family="monospace" font-size="9" fill="#999">angle=43.0°</text>
  <g transform="translate(1000.0,1400.0) scale(0.45161290322580644)">
    <path d="M 0,-310 L 0,-210 A 210,210 0 0 0 -140.0,156.52475842498527 L -140.0,276.5863337187866 A 310,310 0 0 1 0,-310 Z" fill="#E4572E"/>
    <path d="M 0,310 L 0,210 A 210,210 0 0 0 140.0,-156.52475842498527 L 140.0,-276.5863337187866 A 310,310 0 0 1 0,310 Z" fill="#A1C181"/>
    <path d="M 20.0,-309.3541659651604 A 310,310 0 0 1 120.0,-285.832118559129 L 120.0,-84.24959788058342 A 100,100 0 0 1 86.0996926034112,-9.210737030124434 L -20.0,84.24959788058342 L -20.0,309.3541659651604 A 310,310 0 0 1 -120.0,285.832118559129 L -120.0,84.24959788058342 A 100,100 0 0 1 -86.0996926034112,9.210737030124434 L 20.0,-84.24959788058342 Z" fill="#4F6D7A"/>
  </g>
  <text x="810" y="1220" text-anchor="start" font-family="monospace" font-size="10" fill="#333">W=100</text>
  <text x="810" y="1232" text-anchor="start" font-family="monospace" font-size="10" fill="#333">Ri=210</text>
  <text x="810" y="1244" text-anchor="start" font-family="monospace" font-size="10" fill="#333">G=0.20</text>
  <text x="810" y="1256" text-anchor="start" font-family="monospace" font-size="9" fill="#999">slope=-0.881</text>
  <text x="810" y="1266" text-anchor="start" font-family="monospace" font-size="9" fill="#999">angle=41.4°</text>
  <g transform="translate(1400.0,1400.0) scale(0.45161290322580644)">
    <path d="M 0,-310 L 0,-210 A 210,210 0 0 0 -150.0,146.9693845669907 L -150.0,271.29319932501073 A 310,310 0 0 1 0,-310 Z" fill="#E4572E"/>
    <path d="M 0,310 L 0,210 A 210,210 0 0 0 150.0,-146.9693845669907 L 150.0,-271.29319932501073 A 310,310 0 0 1 0,310 Z" fill="#A1C181"/>
    <path d="M 25.0,-308.99029110960754 A 310,310 0 0 1 125.0,-283.6811590500857 L 125.0,-85.73483879316919 A 100,100 0 0 1 88.87174022885532,-8.790698014695195 L -25.0,85.73483879316919 L -25.0,308.99029110960754 A 310,310 0 0 1 -125.0,283.6811590500857 L -125.0,85.73483879316919 A 100,100 0 0 1 -88.87174022885532,8.790698014695195 L 25.0,-85.73483879316919 Z" fill="#4F6D7A"/>
  </g>
  <text x="1210" y="1220" text-anchor="start" font-family="monospace" font-size="10" fill="#333">W=100</text>
  <text x="1210" y="1232" text-anchor="start" font-family="monospace" font-size="10" fill="#333">Ri=210</text>
  <text x="1210" y="1244" text-anchor="start" font-family="monospace" font-size="10" fill="#333">G=0.25</text>
  <text x="1210" y="1256" text-anchor="start" font-family="monospace" font-size="9" fill="#999">slope=-0.830</text>
  <text x="1210" y="1266" text-anchor="start" font-family="monospace" font-size="9" fill="#999">angle=39.7°</text>

  <!-- Grid lines -->
  <line x1="400" y1="0" x2="400" y2="1600" stroke="#ccc" stroke-width="1"/>
  <line x1="0" y1="400" x2="1600" y2="400" stroke="#ccc" stroke-width="1"/>
  <line x1="800" y1="0" x2="800" y2="1600" stroke="#ccc" stroke-width="1"/>
  <line x1="0" y1="800" x2="1600" y2="800" stroke="#ccc" stroke-width="1"/>
  <line x1="1200" y1="0" x2="1200" y2="1600" stroke="#ccc" stroke-width="1"/>
  <line x1="0" y1="1200" x2="1600" y2="1200" stroke="#ccc" stroke-width="1"/>
</svg>